<!DOCTYPE svg PUBLIC "-//W3C//DTD SVG 1.1//EN" "http://www.w3.org/Graphics/SVG/1.1/DTD/svg11.dtd">
<!-- Uploaded to: SVG Repo, www.svgrepo.com, Transformed by: SVG Repo Mixer Tools -->
<svg fill="#ffffff" height="800px" width="800px" version="1.1" id="Layer_1" xmlns="http://www.w3.org/2000/svg" xmlns:xlink="http://www.w3.org/1999/xlink" viewBox="0 0 512 512" xml:space="preserve" style="--darkreader-inline-fill: #1b1b19;" data-darkreader-inline-fill="">
<g id="SVGRepo_bgCarrier" stroke-width="0"/>
<g id="SVGRepo_tracerCarrier" stroke-linecap="round" stroke-linejoin="round"/>
<g id="SVGRepo_iconCarrier"> <g> <g> <path d="M52.513,0v19.692c0,29.869,0.239,58.367,0.65,85.333H288.82V0H52.513z"/> </g> </g> <g> <g> <path d="M374.154,367.59h-13.128c-39.814,0-72.205-32.391-72.205-72.205V144.41H53.906 c2.849,126.825,9.242,213.146,11.221,237.582c-8.275,13.409-12.614,28.701-12.614,44.674V512h144.41v-36.012 c11.943,3.476,25.206,9.162,38.191,14.727C259.53,501.18,284.778,512,308.513,512h150.974v-59.077 C459.487,405.87,421.207,367.59,374.154,367.59z"/> </g> </g> </g>
</svg>