<!DOCTYPE svg PUBLIC "-//W3C//DTD SVG 1.1//EN" "http://www.w3.org/Graphics/SVG/1.1/DTD/svg11.dtd">
<!-- Uploaded to: SVG Repo, www.svgrepo.com, Transformed by: SVG Repo Mixer Tools -->
<svg width="800px" height="800px" viewBox="0 0 24 24" fill="none" xmlns="http://www.w3.org/2000/svg">
<g id="SVGRepo_bgCarrier" stroke-width="0"/>
<g id="SVGRepo_tracerCarrier" stroke-linecap="round" stroke-linejoin="round"/>
<g id="SVGRepo_iconCarrier"> <path d="M3 21.0001L14 21V5.98924C14 4.6252 14 3.94318 13.7187 3.47045C13.472 3.05596 13.0838 2.74457 12.6257 2.59368C12.1032 2.42159 11.4374 2.56954 10.1058 2.86544L7.50582 3.44322C6.6117 3.64191 6.16464 3.74126 5.83093 3.98167C5.53658 4.19373 5.30545 4.48186 5.1623 4.8152C5 5.19312 5 5.65108 5 6.56702V21.0001M13.994 5.00007H15.8C16.9201 5.00007 17.4802 5.00007 17.908 5.21805C18.2843 5.4098 18.5903 5.71576 18.782 6.09209C19 6.51991 19 7.07996 19 8.20007V21.0001H21M11 12.0001H11.01" stroke="#ffffff" stroke-width="2" stroke-linecap="round" stroke-linejoin="round"/> </g>
</svg>